<svg width="34" height="34" viewBox="0 0 34 34" fill="none" xmlns="http://www.w3.org/2000/svg">
<path d="M12.9428 3.82701e-08C15.4187 -5.32278e-05 17.8427 0.709789 19.9272 2.04531C22.0117 3.38082 23.6691 5.28596 24.7028 7.53468C25.7366 9.7834 26.1033 12.2813 25.7593 14.7321C25.4154 17.1828 24.3754 19.4835 22.7626 21.3612L34 32.593L32.5923 34L21.3529 22.7662C19.7678 24.121 17.8785 25.0729 15.846 25.5407C13.8136 26.0085 11.6981 25.9784 9.67971 25.453C7.66136 24.9275 5.79998 23.9223 4.25408 22.5229C2.70818 21.1235 1.52357 19.3714 0.801143 17.4158C0.0787156 15.4602 -0.160128 13.359 0.104955 11.2913C0.370038 9.22355 1.13119 7.25047 2.3236 5.54011C3.516 3.82974 5.10432 2.43276 6.95328 1.46814C8.80224 0.503518 10.8571 -0.000160303 12.9428 3.82701e-08ZM12.9428 1.99005C10.0384 1.99005 7.25309 3.14321 5.19943 5.19585C3.14577 7.24848 1.99204 10.0325 1.99204 12.9353C1.99204 15.8382 3.14577 18.6222 5.19943 20.6748C7.25309 22.7274 10.0384 23.8806 12.9428 23.8806C15.8471 23.8806 18.6324 22.7274 20.6861 20.6748C22.7397 18.6222 23.8935 15.8382 23.8935 12.9353C23.8935 10.0325 22.7397 7.24848 20.6861 5.19585C18.6324 3.14321 15.8471 1.99005 12.9428 1.99005Z" fill="white"/>
</svg>
